<?xml version="1.0" encoding="utf-8"?>
<!-- Generator: Adobe Illustrator 22.0.0, SVG Export Plug-In . SVG Version: 6.00 Build 0)  -->
<svg version="1.1" xmlns="http://www.w3.org/2000/svg" xmlns:xlink="http://www.w3.org/1999/xlink" x="0px" y="0px"
	 viewBox="0 0 240 37.4" style="enable-background:new 0 0 240 37.4;" xml:space="preserve">
<style type="text/css">
	.st0{display:none;}
	.st1{display:inline;}
	.st2{fill:#0082AB;}
	.st3{fill:#008EAF;}
	.st4{fill:#C24530;}
	.st5{fill:#E65038;}
</style>
<g id="Guidelines" class="st0">
</g>
<g id="Tagline" class="st0">
	<g class="st1">
		<path class="st2" d="M33.3,29.3l1.4-2.6H35l-1.6,2.9v1.9h-0.3v-1.8l-1.6-3h0.4L33.3,29.3z"/>
		<path class="st2" d="M38.6,29.6c0,0.6-0.1,1-0.4,1.4c-0.3,0.3-0.7,0.5-1.2,0.5c-0.3,0-0.6-0.1-0.8-0.2c-0.2-0.2-0.4-0.4-0.5-0.6
			c-0.1-0.3-0.2-0.6-0.2-1c0-0.6,0.1-1,0.4-1.4c0.3-0.3,0.7-0.5,1.2-0.5c0.5,0,0.9,0.2,1.2,0.5C38.4,28.6,38.6,29.1,38.6,29.6z
			 M35.8,29.6c0,0.5,0.1,0.9,0.3,1.1c0.2,0.3,0.5,0.4,0.9,0.4s0.7-0.1,0.9-0.4c0.2-0.3,0.3-0.7,0.3-1.1c0-0.5-0.1-0.9-0.3-1.1
			c-0.2-0.3-0.5-0.4-0.9-0.4s-0.7,0.1-0.9,0.4C35.9,28.8,35.8,29.1,35.8,29.6z"/>
		<path class="st2" d="M39.8,27.9v2.3c0,0.4,0.1,0.6,0.2,0.8c0.2,0.2,0.4,0.2,0.7,0.2c0.4,0,0.7-0.1,0.9-0.3c0.2-0.2,0.3-0.6,0.3-1
			v-2h0.3v3.6H42L42,30.9h0c-0.2,0.4-0.6,0.6-1.2,0.6c-0.8,0-1.2-0.4-1.2-1.3v-2.3H39.8z"/>
		<path class="st2" d="M44.9,27.8c0.2,0,0.3,0,0.5,0l-0.1,0.3c-0.1,0-0.3-0.1-0.5-0.1c-0.3,0-0.6,0.1-0.7,0.4
			c-0.2,0.3-0.3,0.6-0.3,1v2h-0.3v-3.6h0.3l0,0.6h0c0.1-0.3,0.3-0.4,0.5-0.6C44.5,27.8,44.7,27.8,44.9,27.8z"/>
		<path class="st2" d="M50.6,27.9v0.2l-0.7,0c0.2,0.2,0.3,0.5,0.3,0.8c0,0.3-0.1,0.6-0.3,0.8c-0.2,0.2-0.5,0.3-0.9,0.3
			c-0.2,0-0.3,0-0.3,0c-0.1,0.1-0.2,0.1-0.3,0.2c-0.1,0.1-0.1,0.2-0.1,0.3c0,0.1,0,0.2,0.1,0.2c0.1,0.1,0.2,0.1,0.4,0.1h0.6
			c0.4,0,0.7,0.1,0.9,0.2c0.2,0.2,0.3,0.4,0.3,0.7c0,0.4-0.2,0.7-0.5,0.9c-0.3,0.2-0.7,0.3-1.3,0.3c-0.4,0-0.8-0.1-1-0.3
			c-0.2-0.2-0.4-0.4-0.4-0.7c0-0.2,0.1-0.4,0.2-0.6c0.2-0.2,0.4-0.3,0.6-0.3c-0.1,0-0.2-0.1-0.3-0.2c-0.1-0.1-0.1-0.2-0.1-0.3
			c0-0.2,0.2-0.4,0.5-0.6c-0.2-0.1-0.4-0.2-0.5-0.4c-0.1-0.2-0.2-0.4-0.2-0.6c0-0.4,0.1-0.6,0.3-0.9c0.2-0.2,0.5-0.3,0.9-0.3
			c0.2,0,0.4,0,0.5,0.1H50.6z M47.8,32c0,0.5,0.4,0.7,1.1,0.7c0.9,0,1.4-0.3,1.4-0.9c0-0.2-0.1-0.4-0.2-0.5
			c-0.1-0.1-0.4-0.1-0.7-0.1h-0.6C48.1,31.3,47.8,31.5,47.8,32z M48,29c0,0.3,0.1,0.5,0.3,0.6c0.2,0.2,0.4,0.2,0.7,0.2
			c0.3,0,0.5-0.1,0.7-0.2c0.2-0.2,0.2-0.4,0.2-0.7c0-0.3-0.1-0.5-0.2-0.7c-0.2-0.2-0.4-0.2-0.7-0.2c-0.3,0-0.5,0.1-0.7,0.2
			C48.1,28.5,48,28.7,48,29z"/>
		<path class="st2" d="M51.6,27.9v2.3c0,0.4,0.1,0.6,0.2,0.8c0.2,0.2,0.4,0.2,0.7,0.2c0.4,0,0.7-0.1,0.9-0.3c0.2-0.2,0.3-0.6,0.3-1
			v-2h0.3v3.6h-0.3l-0.1-0.5h0c-0.2,0.4-0.6,0.6-1.2,0.6c-0.8,0-1.2-0.4-1.2-1.3v-2.3H51.6z"/>
		<path class="st2" d="M55.3,26.9c0-0.2,0.1-0.3,0.2-0.3c0.1,0,0.1,0,0.2,0.1c0,0.1,0.1,0.1,0.1,0.2c0,0.1,0,0.2-0.1,0.2
			c0,0.1-0.1,0.1-0.2,0.1C55.3,27.2,55.3,27.1,55.3,26.9z M55.6,31.4h-0.3v-3.6h0.3V31.4z"/>
		<path class="st2" d="M58.1,27.8c0.3,0,0.5,0,0.7,0.1c0.2,0.1,0.4,0.3,0.5,0.5h0c0-0.3,0-0.5,0-0.8v-1.3h0.3v5.1h-0.2l-0.1-0.5h0
			c-0.3,0.4-0.7,0.6-1.2,0.6c-0.5,0-0.9-0.2-1.1-0.5c-0.3-0.3-0.4-0.8-0.4-1.3c0-0.6,0.1-1.1,0.4-1.4C57.3,28,57.6,27.8,58.1,27.8z
			 M58.1,28.1c-0.4,0-0.7,0.1-0.9,0.4c-0.2,0.3-0.3,0.7-0.3,1.2c0,1,0.4,1.5,1.2,1.5c0.4,0,0.7-0.1,0.9-0.4c0.2-0.2,0.3-0.6,0.3-1.2
			v-0.1c0-0.6-0.1-0.9-0.3-1.2C58.8,28.2,58.6,28.1,58.1,28.1z"/>
		<path class="st2" d="M62.3,31.5c-0.5,0-0.9-0.2-1.2-0.5c-0.3-0.3-0.4-0.8-0.4-1.3c0-0.6,0.1-1,0.4-1.4c0.3-0.3,0.7-0.5,1.1-0.5
			c0.4,0,0.7,0.1,1,0.4c0.2,0.3,0.4,0.7,0.4,1.2v0.3H61c0,0.5,0.1,0.9,0.3,1.1c0.2,0.3,0.5,0.4,1,0.4c0.2,0,0.4,0,0.5,0
			c0.2,0,0.3-0.1,0.6-0.2v0.3c-0.2,0.1-0.4,0.1-0.6,0.2C62.7,31.5,62.5,31.5,62.3,31.5z M62.2,28.1c-0.3,0-0.6,0.1-0.8,0.3
			c-0.2,0.2-0.3,0.6-0.4,1h2.2c0-0.4-0.1-0.7-0.3-1C62.7,28.2,62.5,28.1,62.2,28.1z"/>
		<path class="st2" d="M66.7,30.5c0,0.3-0.1,0.6-0.4,0.7c-0.2,0.2-0.6,0.3-1,0.3c-0.5,0-0.9-0.1-1.1-0.2v-0.4
			c0.4,0.2,0.7,0.3,1.1,0.3c0.4,0,0.6-0.1,0.8-0.2c0.2-0.1,0.3-0.3,0.3-0.5c0-0.2-0.1-0.3-0.2-0.5c-0.1-0.1-0.4-0.2-0.7-0.4
			c-0.4-0.1-0.6-0.2-0.7-0.3c-0.1-0.1-0.3-0.2-0.3-0.3c-0.1-0.1-0.1-0.3-0.1-0.4c0-0.3,0.1-0.5,0.3-0.6c0.2-0.2,0.5-0.2,0.9-0.2
			c0.4,0,0.7,0.1,1.1,0.2l-0.1,0.3c-0.3-0.1-0.7-0.2-1-0.2c-0.3,0-0.5,0-0.7,0.1c-0.2,0.1-0.3,0.2-0.3,0.4c0,0.2,0.1,0.3,0.2,0.4
			c0.1,0.1,0.4,0.2,0.8,0.4c0.3,0.1,0.6,0.2,0.7,0.3c0.1,0.1,0.3,0.2,0.3,0.3C66.7,30.2,66.7,30.3,66.7,30.5z"/>
		<path class="st2" d="M70.3,31.2c0.2,0,0.4,0,0.5-0.1v0.3c-0.2,0.1-0.3,0.1-0.5,0.1c-0.3,0-0.5-0.1-0.7-0.3
			c-0.1-0.2-0.2-0.4-0.2-0.8v-2.3h-0.5V28l0.5-0.1l0.2-0.8h0.2v0.9h1v0.3h-1v2.3c0,0.3,0,0.5,0.1,0.6C70,31.1,70.1,31.2,70.3,31.2z"
			/>
		<path class="st2" d="M74.6,29.6c0,0.6-0.1,1-0.4,1.4c-0.3,0.3-0.7,0.5-1.2,0.5c-0.3,0-0.6-0.1-0.8-0.2c-0.2-0.2-0.4-0.4-0.5-0.6
			c-0.1-0.3-0.2-0.6-0.2-1c0-0.6,0.1-1,0.4-1.4c0.3-0.3,0.7-0.5,1.2-0.5c0.5,0,0.9,0.2,1.2,0.5C74.4,28.6,74.6,29.1,74.6,29.6z
			 M71.7,29.6c0,0.5,0.1,0.9,0.3,1.1c0.2,0.3,0.5,0.4,0.9,0.4s0.7-0.1,0.9-0.4c0.2-0.3,0.3-0.7,0.3-1.1c0-0.5-0.1-0.9-0.3-1.1
			c-0.2-0.3-0.5-0.4-0.9-0.4s-0.7,0.1-0.9,0.4C71.9,28.8,71.7,29.1,71.7,29.6z"/>
		<path class="st2" d="M79.5,30.5c0,0.3-0.1,0.6-0.4,0.7c-0.2,0.2-0.6,0.3-1,0.3c-0.5,0-0.9-0.1-1.1-0.2v-0.4
			c0.4,0.2,0.7,0.3,1.1,0.3c0.4,0,0.6-0.1,0.8-0.2c0.2-0.1,0.3-0.3,0.3-0.5c0-0.2-0.1-0.3-0.2-0.5c-0.1-0.1-0.4-0.2-0.7-0.4
			c-0.4-0.1-0.6-0.2-0.7-0.3c-0.1-0.1-0.3-0.2-0.3-0.3C77.1,29,77,28.8,77,28.7c0-0.3,0.1-0.5,0.3-0.6c0.2-0.2,0.5-0.2,0.9-0.2
			c0.4,0,0.7,0.1,1.1,0.2l-0.1,0.3c-0.3-0.1-0.7-0.2-1-0.2c-0.3,0-0.5,0-0.7,0.1c-0.2,0.1-0.3,0.2-0.3,0.4c0,0.2,0.1,0.3,0.2,0.4
			c0.1,0.1,0.4,0.2,0.8,0.4c0.3,0.1,0.6,0.2,0.7,0.3c0.1,0.1,0.3,0.2,0.3,0.3C79.5,30.2,79.5,30.3,79.5,30.5z"/>
		<path class="st2" d="M81.8,31.5c-0.5,0-0.9-0.2-1.2-0.5c-0.3-0.3-0.4-0.8-0.4-1.3c0-0.6,0.1-1,0.4-1.4c0.3-0.3,0.7-0.5,1.1-0.5
			c0.4,0,0.7,0.1,1,0.4c0.2,0.3,0.4,0.7,0.4,1.2v0.3h-2.6c0,0.5,0.1,0.9,0.3,1.1c0.2,0.3,0.5,0.4,1,0.4c0.2,0,0.4,0,0.5,0
			c0.2,0,0.3-0.1,0.6-0.2v0.3c-0.2,0.1-0.4,0.1-0.6,0.2C82.2,31.5,82,31.5,81.8,31.5z M81.7,28.1c-0.3,0-0.6,0.1-0.8,0.3
			c-0.2,0.2-0.3,0.6-0.4,1h2.2c0-0.4-0.1-0.7-0.3-1C82.3,28.2,82.1,28.1,81.7,28.1z"/>
		<path class="st2" d="M85.5,27.8c0.2,0,0.3,0,0.5,0l-0.1,0.3c-0.1,0-0.3-0.1-0.5-0.1c-0.3,0-0.6,0.1-0.7,0.4
			c-0.2,0.3-0.3,0.6-0.3,1v2h-0.3v-3.6h0.3l0,0.6h0c0.1-0.3,0.3-0.4,0.5-0.6C85,27.8,85.2,27.8,85.5,27.8z"/>
		<path class="st2" d="M87.5,31.4l-1.4-3.6h0.3l0.9,2.4c0.1,0.3,0.2,0.6,0.3,0.8h0c0.1-0.3,0.2-0.6,0.3-0.8l0.9-2.4h0.3l-1.4,3.6
			H87.5z"/>
		<path class="st2" d="M89.7,26.9c0-0.2,0.1-0.3,0.2-0.3c0.1,0,0.1,0,0.2,0.1c0,0.1,0.1,0.1,0.1,0.2c0,0.1,0,0.2-0.1,0.2
			c0,0.1-0.1,0.1-0.2,0.1C89.8,27.2,89.7,27.1,89.7,26.9z M90.1,31.4h-0.3v-3.6h0.3V31.4z"/>
		<path class="st2" d="M92.7,31.5c-0.5,0-0.9-0.2-1.2-0.5c-0.3-0.3-0.4-0.8-0.4-1.3c0-0.6,0.1-1,0.4-1.4c0.3-0.3,0.7-0.5,1.2-0.5
			c0.3,0,0.6,0.1,0.9,0.2l-0.1,0.3c-0.3-0.1-0.6-0.2-0.8-0.2c-0.4,0-0.8,0.1-1,0.4c-0.2,0.3-0.3,0.7-0.3,1.2c0,0.5,0.1,0.9,0.3,1.1
			c0.2,0.3,0.5,0.4,0.9,0.4c0.3,0,0.6-0.1,0.9-0.2v0.3C93.4,31.4,93.1,31.5,92.7,31.5z"/>
		<path class="st2" d="M95.9,31.5c-0.5,0-0.9-0.2-1.2-0.5c-0.3-0.3-0.4-0.8-0.4-1.3c0-0.6,0.1-1,0.4-1.4c0.3-0.3,0.7-0.5,1.1-0.5
			c0.4,0,0.7,0.1,1,0.4c0.2,0.3,0.4,0.7,0.4,1.2v0.3h-2.6c0,0.5,0.1,0.9,0.3,1.1c0.2,0.3,0.5,0.4,1,0.4c0.2,0,0.4,0,0.5,0
			c0.2,0,0.3-0.1,0.6-0.2v0.3c-0.2,0.1-0.4,0.1-0.6,0.2C96.3,31.5,96.1,31.5,95.9,31.5z M95.8,28.1c-0.3,0-0.6,0.1-0.8,0.3
			c-0.2,0.2-0.3,0.6-0.4,1h2.2c0-0.4-0.1-0.7-0.3-1C96.4,28.2,96.1,28.1,95.8,28.1z"/>
		<path class="st2" d="M101.3,31.5c-0.5,0-0.9-0.2-1.2-0.5c-0.3-0.3-0.4-0.8-0.4-1.3c0-0.6,0.1-1,0.4-1.4c0.3-0.3,0.7-0.5,1.1-0.5
			c0.4,0,0.7,0.1,1,0.4c0.2,0.3,0.4,0.7,0.4,1.2v0.3H100c0,0.5,0.1,0.9,0.3,1.1c0.2,0.3,0.5,0.4,1,0.4c0.2,0,0.4,0,0.5,0
			c0.2,0,0.3-0.1,0.6-0.2v0.3c-0.2,0.1-0.4,0.1-0.6,0.2C101.7,31.5,101.5,31.5,101.3,31.5z M101.2,28.1c-0.3,0-0.6,0.1-0.8,0.3
			c-0.2,0.2-0.3,0.6-0.4,1h2.2c0-0.4-0.1-0.7-0.3-1C101.8,28.2,101.5,28.1,101.2,28.1z"/>
		<path class="st2" d="M104.4,29.6l-1.2-1.7h0.4l1.1,1.5l1.1-1.5h0.4l-1.2,1.7l1.3,1.8h-0.4l-1.1-1.6l-1.1,1.6h-0.4L104.4,29.6z"/>
		<path class="st2" d="M108.3,31.5c-0.5,0-0.9-0.2-1.2-0.5s-0.4-0.8-0.4-1.3c0-0.6,0.1-1,0.4-1.4c0.3-0.3,0.7-0.5,1.2-0.5
			c0.3,0,0.6,0.1,0.9,0.2l-0.1,0.3c-0.3-0.1-0.6-0.2-0.8-0.2c-0.4,0-0.8,0.1-1,0.4c-0.2,0.3-0.3,0.7-0.3,1.2c0,0.5,0.1,0.9,0.3,1.1
			c0.2,0.3,0.5,0.4,0.9,0.4c0.3,0,0.6-0.1,0.9-0.2v0.3C109,31.4,108.7,31.5,108.3,31.5z"/>
		<path class="st2" d="M111.5,31.5c-0.5,0-0.9-0.2-1.2-0.5c-0.3-0.3-0.4-0.8-0.4-1.3c0-0.6,0.1-1,0.4-1.4c0.3-0.3,0.7-0.5,1.1-0.5
			c0.4,0,0.7,0.1,1,0.4c0.2,0.3,0.4,0.7,0.4,1.2v0.3h-2.6c0,0.5,0.1,0.9,0.3,1.1c0.2,0.3,0.5,0.4,1,0.4c0.2,0,0.4,0,0.5,0
			c0.2,0,0.3-0.1,0.6-0.2v0.3c-0.2,0.1-0.4,0.1-0.6,0.2C111.9,31.5,111.7,31.5,111.5,31.5z M111.4,28.1c-0.3,0-0.6,0.1-0.8,0.3
			c-0.2,0.2-0.3,0.6-0.4,1h2.2c0-0.4-0.1-0.7-0.3-1C112,28.2,111.7,28.1,111.4,28.1z"/>
		<path class="st2" d="M114.1,31.4h-0.3v-5.1h0.3V31.4z"/>
		<path class="st2" d="M115.6,31.4h-0.3v-5.1h0.3V31.4z"/>
		<path class="st2" d="M118.2,31.5c-0.5,0-0.9-0.2-1.2-0.5c-0.3-0.3-0.4-0.8-0.4-1.3c0-0.6,0.1-1,0.4-1.4c0.3-0.3,0.7-0.5,1.1-0.5
			c0.4,0,0.7,0.1,1,0.4c0.2,0.3,0.4,0.7,0.4,1.2v0.3h-2.6c0,0.5,0.1,0.9,0.3,1.1c0.2,0.3,0.5,0.4,1,0.4c0.2,0,0.4,0,0.5,0
			c0.2,0,0.3-0.1,0.6-0.2v0.3c-0.2,0.1-0.4,0.1-0.6,0.2C118.6,31.5,118.4,31.5,118.2,31.5z M118.1,28.1c-0.3,0-0.6,0.1-0.8,0.3
			c-0.2,0.2-0.3,0.6-0.4,1h2.2c0-0.4-0.1-0.7-0.3-1C118.7,28.2,118.5,28.1,118.1,28.1z"/>
		<path class="st2" d="M123,31.4v-2.3c0-0.4-0.1-0.6-0.2-0.8c-0.2-0.2-0.4-0.2-0.7-0.2c-0.4,0-0.7,0.1-0.9,0.3
			c-0.2,0.2-0.3,0.6-0.3,1v2h-0.3v-3.6h0.3l0.1,0.5h0c0.2-0.4,0.6-0.6,1.2-0.6c0.8,0,1.2,0.4,1.2,1.3v2.3H123z"/>
		<path class="st2" d="M125.9,31.5c-0.5,0-0.9-0.2-1.2-0.5s-0.4-0.8-0.4-1.3c0-0.6,0.1-1,0.4-1.4c0.3-0.3,0.7-0.5,1.2-0.5
			c0.3,0,0.6,0.1,0.9,0.2l-0.1,0.3c-0.3-0.1-0.6-0.2-0.8-0.2c-0.4,0-0.8,0.1-1,0.4c-0.2,0.3-0.3,0.7-0.3,1.2c0,0.5,0.1,0.9,0.3,1.1
			c0.2,0.3,0.5,0.4,0.9,0.4c0.3,0,0.6-0.1,0.9-0.2v0.3C126.5,31.4,126.2,31.5,125.9,31.5z"/>
		<path class="st2" d="M129.1,31.5c-0.5,0-0.9-0.2-1.2-0.5c-0.3-0.3-0.4-0.8-0.4-1.3c0-0.6,0.1-1,0.4-1.4c0.3-0.3,0.7-0.5,1.1-0.5
			c0.4,0,0.7,0.1,1,0.4c0.2,0.3,0.4,0.7,0.4,1.2v0.3h-2.6c0,0.5,0.1,0.9,0.3,1.1c0.2,0.3,0.5,0.4,1,0.4c0.2,0,0.4,0,0.5,0
			c0.2,0,0.3-0.1,0.6-0.2v0.3c-0.2,0.1-0.4,0.1-0.6,0.2C129.4,31.5,129.3,31.5,129.1,31.5z M129,28.1c-0.3,0-0.6,0.1-0.8,0.3
			c-0.2,0.2-0.3,0.6-0.4,1h2.2c0-0.4-0.1-0.7-0.3-1C129.5,28.2,129.3,28.1,129,28.1z"/>
	</g>
</g>
<g id="TOPdesk">
	<g>
		<g>
			<polygon class="st3" points="46.2,0.4 46.2,6.4 56,6.4 56,37 62.9,37 62.9,6.4 72.8,6.4 72.8,0.4 			"/>
		</g>
		<g>
			<path class="st3" d="M108.8,37h6.9l0-12.3c0,0,3.3,0,5.7,0c7,0,11.5-6.4,11.5-13.6c0-6.8-4.7-10.6-11.4-10.6l-12.7,0L108.8,37z
				 M120.3,19.1c-1.7,0-4.6,0-4.6,0V6.4c1.7-0.4,4.9-0.3,6.3-0.2c2.7,0.3,3.9,2,3.9,5.4C125.9,14.9,125.2,19.1,120.3,19.1z"/>
		</g>
		<g>
			<path class="st3" d="M153.1,0.4l0,10.4c-0.5-0.9-3.5-1.5-6.2-1.5c-8.4,0-12.4,5.2-12.4,14c0,7.4,5.4,13.6,12.5,13.6h8.1l4.9,0
				c0-2.2,0-36.6,0-36.6H153.1z M153.1,31.3h-5.3c-3.8,0-6.7-3.6-6.7-9.2c0-4.3,2.2-7.4,6.5-7.4c3.7,0,5.6,2,5.6,4.8V31.3z"/>
		</g>
		<g>
			<polygon class="st3" points="227.3,22.1 238.7,9.3 230.5,9.3 220.7,21.1 220.7,0.4 213.8,0.4 213.8,37 220.7,37 220.7,23.4 
				231.7,37 240,37 			"/>
		</g>
		<g>
			<path class="st3" d="M89.5,0C78.9,0,72.8,8.8,72.8,19.4c0,11.1,7.5,18,16,18c10.6,0,16.7-8.2,16.7-19.1C105.5,7.8,98.3,0,89.5,0z
				 M89.4,31.2c-5.9,0-9.4-4.6-9.4-12.8c0-7.7,3.5-12.3,8.9-12.3c6.4,0,9.4,4.9,9.4,13.3C98.3,26.5,94.6,31.2,89.4,31.2z"/>
		</g>
		<path class="st3" d="M195.9,22.4"/>
		<g>
			<g>
				<path class="st3" d="M174.6,26.2h-4.4c0.5,3.4,3.6,5.5,7.5,5.5c2.8,0,6.3-0.7,8.4-2.7v2.2v2.4c-0.3,0.4-2.6,3.8-9.7,3.6
					c-6.7,0-13.2-5.3-13.2-13.5c0-8.9,5.5-14.6,13.1-14.6c5.6,0,10.7,4,10.7,10.4C187.2,24.7,183.5,26.2,174.6,26.2z M175.9,14.9
					c-3.2,0-5.5,2.6-5.6,5.7l0,0.9h3c6.3,0,7.7-0.7,7.7-2.6C180.9,16.3,178.9,14.9,175.9,14.9z"/>
			</g>
		</g>
		<g>
			<g>
				<path class="st3" d="M199.3,37.4c-4.1,0-7.4-1.9-8.6-3.6l0-4.7l0,0c1.4,1.3,5.1,2.5,8.3,2.5c3.3,0,4.9-0.9,4.9-2.9
					c0-1.5-0.9-2.3-5.6-2.9c-5.7-0.8-8.4-3-8.4-7.1c0-5,4.5-9.3,11.4-9.3c3.7,0,6,1.2,7.3,2.6l0,4.8l0,0c-1.6-1-4.1-1.7-6.7-1.7
					c-4.1,0-5.4,1.2-5.4,3c0,1.3,0.8,1.9,5.4,2.6c5.6,0.9,8.5,3.3,8.5,7.6C210.5,34,206.5,37.4,199.3,37.4z"/>
			</g>
		</g>
	</g>
</g>
<g id="Symbol">
	<path class="st2" d="M207.1,9.7"/>
	<g>
		<g>
			<path class="st4" d="M13.2,18.7L0,5.5l0,0c7.3-7.3,19.1-7.3,26.4,0l0,0L13.2,18.7z"/>
		</g>
		<g>
			<path class="st5" d="M26.4,31.9L26.4,31.9l13.2-13.2L26.4,5.5L13.2,18.7L0,31.9C7.3,39.2,19.1,39.2,26.4,31.9z"/>
		</g>
	</g>
</g>
</svg>
